<?xml version="1.0" encoding="UTF-8"?>
<svg id="Layer_1" xmlns="http://www.w3.org/2000/svg" version="1.1" viewBox="0 0 439.02 98.8">
  <!-- Generator: Adobe Illustrator 29.1.0, SVG Export Plug-In . SVG Version: 2.1.0 Build 142)  -->
  <defs>
    <style>
      .st0 {
        fill: none;
      }

      .st1 {
        fill: #d2ab67;
      }

      .st2 {
        fill: #002e6e;
      }
    </style>
  </defs>
  <rect class="st0" x="17.6" y="16.99" width="65.8" height="65.8"/>
  <rect class="st0" x="1.1" y=".49" width="98.8" height="98.8"/>
  <rect class="st0" x="99.8" y="16.99" width="323.6" height="65.8"/>
  <rect class="st0" x="99.9" y=".49" width="340" height="98.8"/>
  <g>
    <polygon class="st1" points="47.1 16.99 47.1 65.19 17.6 82.79 37.3 57.29 47.1 16.99"/>
    <polygon class="st1" points="54 16.99 54 65.19 83.4 82.79 63.8 57.29 54 16.99"/>
  </g>
  <g>
    <path class="st2" d="M99.8,59.59v-19.3h4.2v19.3h-4.2Z"/>
    <path class="st2" d="M119.6,44.19v15.4h-4.2v-15.4h-5.9v-3.9h16v3.9h-5.9Z"/>
    <path class="st2" d="M145.9,57.89c-.5.4-1.1.8-1.8,1.1s-1.3.5-2.1.7c-.8.2-1.6.2-2.5.2-1.4,0-2.7-.3-3.9-.8s-2.3-1.2-3.1-2.1c-.9-.9-1.6-1.9-2.1-3.2s-.7-2.5-.7-3.9h0c0-1.4.2-2.7.7-3.9s1.2-2.3,2.1-3.2,1.9-1.6,3.2-2.1c1.2-.5,2.6-.8,4.1-.8s1.7,0,2.5.2c.7.1,1.4.3,2,.6s1.2.6,1.7.9c.5.4,1,.8,1.4,1.2l-2.7,3.1c-.8-.7-1.5-1.2-2.3-1.6-.8-.4-1.7-.6-2.6-.6s-1.6.2-2.2.5c-.7.3-1.3.7-1.8,1.3s-.9,1.2-1.2,1.9c-.3.7-.4,1.5-.4,2.3h0c0,.9.1,1.7.4,2.4s.7,1.4,1.1,1.9c.5.6,1.1,1,1.8,1.3.7.3,1.4.5,2.3.5s2-.2,2.8-.6,1.5-1,2.3-1.7l2.7,2.7c-.5.5-1,1-1.5,1.4l-.2.3Z"/>
    <path class="st2" d="M175.2,59.59v-7.7h-7.8v7.7h-4.2v-19.3h4.2v7.6h7.8v-7.6h4.2v19.3h-4.2Z"/>
    <path class="st2" d="M204.1,53.79c-.5,1.2-1.2,2.3-2.1,3.2s-2,1.6-3.3,2.2c-1.3.5-2.6.8-4.1.8s-2.9-.3-4.1-.8-2.3-1.2-3.2-2.1c-.9-.9-1.6-1.9-2.1-3.1s-.8-2.5-.8-3.9h0c0-1.4.3-2.7.8-3.9s1.2-2.3,2.1-3.2,2-1.6,3.3-2.1,2.6-.8,4.1-.8,2.9.3,4.1.8,2.3,1.2,3.2,2.1c.9.9,1.6,1.9,2.1,3.1.5,1.2.8,2.5.8,3.9h0c0,1.4-.3,2.7-.8,3.9v-.1ZM200.4,49.89c0-.8-.1-1.6-.4-2.3s-.7-1.4-1.2-1.9c-.5-.6-1.1-1-1.9-1.3-.7-.3-1.5-.5-2.3-.5s-1.6.2-2.4.5c-.7.3-1.3.7-1.8,1.3s-.9,1.2-1.2,1.9c-.3.7-.4,1.5-.4,2.3h0c0,.9.1,1.7.4,2.4s.7,1.4,1.2,1.9c.5.6,1.1,1,1.8,1.3s1.5.5,2.4.5,1.6-.2,2.3-.5,1.3-.7,1.8-1.3.9-1.2,1.2-1.9c.3-.7.4-1.5.4-2.3h0l.1-.1Z"/>
    <path class="st2" d="M218.2,44.19v15.4h-4.2v-15.4h-5.9v-3.9h16v3.9h-5.9Z"/>
    <path class="st2" d="M229.5,59.59v-19.3h14.5v3.8h-10.3v3.9h9.1v3.8h-9.1v4.1h10.5v3.8h-14.7v-.1Z"/>
    <path class="st2" d="M249.9,59.59v-19.3h4.2v15.5h9.6v3.8h-13.9.1Z"/>
    <path class="st2" d="M282,56.39c-.3.7-.8,1.4-1.5,1.9-.6.5-1.4.9-2.2,1.2s-1.8.4-2.9.4-2.9-.3-4.3-.8-2.7-1.3-3.9-2.3l2.5-3c.9.7,1.8,1.3,2.7,1.7.9.4,1.9.6,3,.6s1.6-.2,2.1-.5.7-.8.7-1.3h0c0-.3,0-.6-.2-.8-.1-.2-.3-.4-.6-.6-.3-.2-.7-.4-1.2-.6-.5-.2-1.2-.4-2-.6-1-.2-1.9-.5-2.7-.8-.8-.3-1.5-.7-2-1.1s-1-1-1.3-1.6-.5-1.4-.5-2.4h0c0-.9.2-1.7.5-2.4s.8-1.3,1.4-1.8,1.3-.9,2.1-1.2c.8-.3,1.7-.4,2.7-.4,1.4,0,2.7.2,3.9.6,1.2.4,2.3,1,3.3,1.8l-2.2,3.2c-.9-.6-1.7-1.1-2.5-1.4-.8-.3-1.7-.5-2.5-.5s-1.4.2-1.9.5c-.4.3-.6.7-.6,1.2h0c0,.4,0,.6.2.9.1.2.3.4.6.6.3.2.7.4,1.3.5.5.2,1.2.4,2.1.6,1,.3,1.8.5,2.6.9s1.4.7,1.9,1.2.9,1,1.2,1.6c.3.6.4,1.3.4,2.2h0c0,1-.2,1.9-.5,2.6l.3-.1Z"/>
    <path class="st2" d="M299.1,59.59v-19.3h4.2v15.5h9.6v3.8h-13.9.1Z"/>
    <path class="st2" d="M317.7,59.59v-19.3h4.2v19.3h-4.2Z"/>
    <path class="st2" d="M344.4,59.59v-12.6l-5.4,8.2h-.1l-5.4-8.2v12.5h-4.2v-19.3h4.6l5.1,8.2,5.1-8.2h4.6v19.3h-4.2l-.1.1Z"/>
    <path class="st2" d="M354.3,59.59v-19.3h4.2v19.3h-4.2Z"/>
    <path class="st2" d="M374.7,44.19v15.4h-4.2v-15.4h-5.9v-3.9h16v3.9h-5.9,0Z"/>
    <path class="st2" d="M385.5,59.59v-19.3h14.5v3.8h-10.3v3.9h9.1v3.8h-9.1v4.1h10.5v3.8h-14.7v-.1Z"/>
    <path class="st2" d="M422.5,53.69c-.5,1.2-1.2,2.2-2.1,3.1-.9.9-2,1.5-3.3,2s-2.6.7-4.1.7h-7.5v-19.3h7.5c1.5,0,2.9.2,4.1.7s2.3,1.2,3.3,2c.9.9,1.6,1.9,2.1,3s.7,2.4.7,3.8h0c0,1.4-.2,2.7-.7,3.9v.1ZM418.8,49.89c0-.8-.1-1.6-.4-2.3s-.7-1.3-1.2-1.8-1.1-.9-1.8-1.2-1.5-.4-2.4-.4h-3.3v11.6h3.3c.9,0,1.7-.1,2.4-.4.7-.3,1.3-.7,1.8-1.2s.9-1.1,1.2-1.8.4-1.5.4-2.3h0v-.2Z"/>
  </g>
</svg>